<svg xmlns="http://www.w3.org/2000/svg" viewBox="0 0 64 64">
  <defs>
    <linearGradient id="clinicpulse-obsidian-bg" x1="10" y1="8" x2="54" y2="58" gradientUnits="userSpaceOnUse">
      <stop stop-color="#063C34"/>
      <stop offset=".58" stop-color="#06251F"/>
      <stop offset="1" stop-color="#0B5F53"/>
    </linearGradient>
  </defs>
  <rect width="64" height="64" rx="15" fill="url(#clinicpulse-obsidian-bg)"/>
  <path d="M43.5 12.5C35.8 10.4 27.6 11.7 21.8 16.2C15.8 20.9 13.1 28.4 14.8 35.2C16.7 44.8 25.6 51.2 35.6 49.5C39.2 48.9 42.2 47.4 44.4 45.5" fill="none" stroke="#F8FFFB" stroke-width="5.4" stroke-linecap="round"/>
  <path d="M32.8 18.8H39C45.1 18.8 49.2 22.7 49.2 28.1C49.2 33.6 45.1 37.4 39 37.4H31.6" fill="none" stroke="#F8FFFB" stroke-width="5.4" stroke-linecap="round" stroke-linejoin="round"/>
  <path d="M17.5 38.8H25.4L28.8 31.6L35.2 45.5L38.8 38.8H48.4" fill="none" stroke="#7AF2C5" stroke-width="4.2" stroke-linecap="round" stroke-linejoin="round"/>
  <path d="M44 14.6V24.6M39 19.6H49" fill="none" stroke="#CFFBE7" stroke-width="3.8" stroke-linecap="round"/>
</svg>
